<mxfile host="app.diagrams.net" modified="2020-12-20T13:15:24.130Z" agent="5.0 (Windows NT 10.0; Win64; x64) AppleWebKit/537.36 (KHTML, like Gecko) Chrome/87.0.4280.88 Safari/537.36" etag="tcmOP9tnyIjydvYFzKv6" version="14.0.0" type="github">
  <diagram id="Zqv8tzafvvCmvZJoMrQ2" name="Page-1">
    <mxGraphModel dx="1422" dy="794" grid="1" gridSize="10" guides="1" tooltips="1" connect="1" arrows="1" fold="1" page="1" pageScale="1" pageWidth="827" pageHeight="1169" math="0" shadow="0">
      <root>
        <mxCell id="0" />
        <mxCell id="1" parent="0" />
        <mxCell id="StN1zPJZRJW9Vo9l14yQ-1" value="&lt;font style=&quot;font-size: 14px&quot;&gt;Base::~Base()&lt;/font&gt;" style="rounded=0;whiteSpace=wrap;html=1;fillColor=#e1d5e7;strokeColor=#9673a6;" vertex="1" parent="1">
          <mxGeometry x="680" y="100" width="120" height="60" as="geometry" />
        </mxCell>
        <mxCell id="StN1zPJZRJW9Vo9l14yQ-3" style="edgeStyle=orthogonalEdgeStyle;rounded=0;orthogonalLoop=1;jettySize=auto;html=1;exitX=1;exitY=0.5;exitDx=0;exitDy=0;" edge="1" parent="1" source="StN1zPJZRJW9Vo9l14yQ-2" target="StN1zPJZRJW9Vo9l14yQ-1">
          <mxGeometry relative="1" as="geometry" />
        </mxCell>
        <mxCell id="StN1zPJZRJW9Vo9l14yQ-2" value="&lt;font style=&quot;font-size: 14px&quot;&gt;Base::vtbl[0]&lt;/font&gt;" style="rounded=0;whiteSpace=wrap;html=1;fillColor=#f8cecc;strokeColor=#b85450;" vertex="1" parent="1">
          <mxGeometry x="480" y="100" width="120" height="60" as="geometry" />
        </mxCell>
        <mxCell id="StN1zPJZRJW9Vo9l14yQ-5" style="edgeStyle=orthogonalEdgeStyle;rounded=0;orthogonalLoop=1;jettySize=auto;html=1;exitX=1;exitY=0.5;exitDx=0;exitDy=0;entryX=0;entryY=0.5;entryDx=0;entryDy=0;" edge="1" parent="1" source="StN1zPJZRJW9Vo9l14yQ-4" target="StN1zPJZRJW9Vo9l14yQ-2">
          <mxGeometry relative="1" as="geometry" />
        </mxCell>
        <mxCell id="StN1zPJZRJW9Vo9l14yQ-4" value="&lt;font style=&quot;font-size: 14px&quot;&gt;Base::vptr&lt;/font&gt;" style="rounded=0;whiteSpace=wrap;html=1;fillColor=#dae8fc;strokeColor=#6c8ebf;" vertex="1" parent="1">
          <mxGeometry x="280" y="100" width="120" height="60" as="geometry" />
        </mxCell>
        <mxCell id="StN1zPJZRJW9Vo9l14yQ-6" value="&lt;font style=&quot;font-size: 14px&quot;&gt;Derived::~Derived()&lt;/font&gt;" style="rounded=0;whiteSpace=wrap;html=1;fillColor=#e1d5e7;strokeColor=#9673a6;" vertex="1" parent="1">
          <mxGeometry x="680" y="220" width="120" height="60" as="geometry" />
        </mxCell>
        <mxCell id="StN1zPJZRJW9Vo9l14yQ-7" style="edgeStyle=orthogonalEdgeStyle;rounded=0;orthogonalLoop=1;jettySize=auto;html=1;exitX=1;exitY=0.5;exitDx=0;exitDy=0;" edge="1" parent="1" source="StN1zPJZRJW9Vo9l14yQ-8" target="StN1zPJZRJW9Vo9l14yQ-6">
          <mxGeometry relative="1" as="geometry" />
        </mxCell>
        <mxCell id="StN1zPJZRJW9Vo9l14yQ-8" value="&lt;font style=&quot;font-size: 14px&quot;&gt;Derived::vtbl[0]&lt;/font&gt;" style="rounded=0;whiteSpace=wrap;html=1;fillColor=#f8cecc;strokeColor=#b85450;" vertex="1" parent="1">
          <mxGeometry x="480" y="220" width="120" height="60" as="geometry" />
        </mxCell>
        <mxCell id="StN1zPJZRJW9Vo9l14yQ-9" style="edgeStyle=orthogonalEdgeStyle;rounded=0;orthogonalLoop=1;jettySize=auto;html=1;exitX=1;exitY=0.5;exitDx=0;exitDy=0;entryX=0;entryY=0.5;entryDx=0;entryDy=0;" edge="1" parent="1" source="StN1zPJZRJW9Vo9l14yQ-10" target="StN1zPJZRJW9Vo9l14yQ-8">
          <mxGeometry relative="1" as="geometry" />
        </mxCell>
        <mxCell id="StN1zPJZRJW9Vo9l14yQ-10" value="&lt;font style=&quot;font-size: 14px&quot;&gt;Derived::vptr&lt;/font&gt;" style="rounded=0;whiteSpace=wrap;html=1;fillColor=#dae8fc;strokeColor=#6c8ebf;" vertex="1" parent="1">
          <mxGeometry x="280" y="220" width="120" height="60" as="geometry" />
        </mxCell>
      </root>
    </mxGraphModel>
  </diagram>
</mxfile>
